<?xml version="1.0" encoding="utf-8"?>
<!-- Generator: Adobe Illustrator 17.0.0, SVG Export Plug-In . SVG Version: 6.00 Build 0)  -->
<!DOCTYPE svg PUBLIC "-//W3C//DTD SVG 1.1//EN" "http://www.w3.org/Graphics/SVG/1.1/DTD/svg11.dtd">
<svg version="1.1" id="Calque_1" xmlns="http://www.w3.org/2000/svg" xmlns:xlink="http://www.w3.org/1999/xlink" x="0px" y="0px"
	 width="140.565px" height="101.655px" viewBox="0 0 140.565 101.655" enable-background="new 0 0 140.565 101.655"
	 xml:space="preserve">
<g>
	<g>
		<g>
			<path fill="#ED140F" d="M90.747,30.05c0,0,35.659-0.599,33.861,18.579C123.394,53.185,109.01,30.048,90.747,30.05z"/>
			<path fill="#004481" d="M139.575,49.223c0,0-18.279,6.659-36.858,9.056s-26.37-3.397-26.37-3.397s9.889,9.99,26.67,7.592
				C119.798,60.077,132.084,54.85,139.575,49.223z"/>
			<path fill="#67B927" d="M107.961,45.694c0,0-29.026-10.944-69.97,17.152c0,0,20.377-13.39,45.848-13.623
				S107.811,47.492,107.961,45.694z"/>
			<path fill="#B4C5D9" d="M81.441,0c0,0,0.599,8.536-26.07,13.031v52.141c0,0,14.983-2.098,22.774,5.394L81.441,0z"/>
		</g>
		<g>
			<path fill="#244966" d="M3.604,101.195L0,90.88h1.54l1.72,5.081c0.475,1.393,0.885,2.648,1.18,3.856h0.033
				c0.311-1.194,0.77-2.495,1.261-3.841l1.868-5.096h1.524l-3.948,10.315H3.604z"/>
			<path fill="#244966" d="M12.106,91.706c0.016,0.459-0.344,0.826-0.917,0.826c-0.508,0-0.868-0.367-0.868-0.826
				c0-0.474,0.377-0.842,0.901-0.842C11.762,90.865,12.106,91.232,12.106,91.706z M10.501,101.195v-7.407h1.442v7.407H10.501z"/>
			<path fill="#244966" d="M14.826,90.329h1.442v10.866h-1.442V90.329z"/>
			<path fill="#244966" d="M19.183,90.329h1.442v10.866h-1.442V90.329z"/>
			<path fill="#244966" d="M24.343,97.736c0.033,1.821,1.278,2.571,2.719,2.571c1.032,0,1.655-0.168,2.195-0.383l0.246,0.964
				c-0.508,0.214-1.376,0.459-2.638,0.459c-2.441,0-3.899-1.5-3.899-3.734c0-2.234,1.409-3.994,3.719-3.994
				c2.588,0,3.276,2.127,3.276,3.489c0,0.275-0.033,0.49-0.049,0.627H24.343z M28.57,96.772c0.016-0.857-0.377-2.188-1.999-2.188
				c-1.458,0-2.097,1.255-2.212,2.188H28.57z"/>
			<path fill="#244966" d="M43.051,90.329v8.953c0,0.658,0.016,1.408,0.066,1.913h-1.294l-0.066-1.285h-0.033
				c-0.442,0.826-1.409,1.454-2.703,1.454c-1.917,0-3.391-1.515-3.391-3.765c-0.016-2.464,1.622-3.979,3.555-3.979
				c1.212,0,2.031,0.536,2.392,1.132h0.033v-4.423H43.051z M41.61,96.803c0-0.168-0.016-0.398-0.066-0.566
				c-0.213-0.857-0.999-1.561-2.081-1.561c-1.491,0-2.375,1.224-2.375,2.862c0,1.5,0.786,2.739,2.343,2.739
				c0.967,0,1.851-0.597,2.113-1.607c0.049-0.184,0.066-0.367,0.066-0.582V96.803z"/>
			<path fill="#244966" d="M46.737,97.736c0.033,1.821,1.278,2.571,2.719,2.571c1.032,0,1.655-0.168,2.195-0.383l0.246,0.964
				c-0.508,0.214-1.376,0.459-2.638,0.459c-2.441,0-3.899-1.5-3.899-3.734c0-2.234,1.409-3.994,3.719-3.994
				c2.588,0,3.276,2.127,3.276,3.489c0,0.275-0.033,0.49-0.049,0.627H46.737z M50.964,96.772c0.016-0.857-0.377-2.188-1.999-2.188
				c-1.458,0-2.097,1.255-2.212,2.188H50.964z"/>
			<path fill="#244966" d="M66.363,100.858c-0.524,0.245-1.573,0.49-2.916,0.49c-3.113,0-5.455-1.836-5.455-5.219
				c0-3.229,2.343-5.417,5.767-5.417c1.376,0,2.244,0.275,2.621,0.459l-0.344,1.087c-0.541-0.245-1.311-0.429-2.228-0.429
				c-2.588,0-4.309,1.546-4.309,4.254c0,2.525,1.556,4.147,4.243,4.147c0.868,0,1.753-0.168,2.326-0.428L66.363,100.858z"/>
			<path fill="#244966" d="M72.866,101.195l-0.115-0.934h-0.049c-0.442,0.582-1.294,1.102-2.425,1.102
				c-1.605,0-2.425-1.056-2.425-2.127c0-1.791,1.704-2.77,4.767-2.755v-0.153c0-0.612-0.18-1.714-1.802-1.714
				c-0.737,0-1.507,0.214-2.064,0.551l-0.328-0.888c0.655-0.398,1.605-0.658,2.605-0.658c2.425,0,3.014,1.546,3.014,3.03v2.77
				c0,0.643,0.033,1.27,0.131,1.775H72.866z M72.653,97.415c-1.573-0.031-3.358,0.23-3.358,1.668c0,0.872,0.623,1.286,1.36,1.286
				c1.032,0,1.687-0.612,1.917-1.24c0.049-0.138,0.082-0.291,0.082-0.428V97.415z"/>
			<path fill="#244966" d="M76.666,99.817c0.426,0.26,1.18,0.536,1.9,0.536c1.048,0,1.54-0.49,1.54-1.102
				c0-0.643-0.41-0.995-1.474-1.362c-1.425-0.474-2.097-1.209-2.097-2.097c0-1.194,1.032-2.173,2.736-2.173
				c0.803,0,1.507,0.214,1.95,0.459l-0.36,0.979c-0.311-0.184-0.885-0.428-1.622-0.428c-0.852,0-1.327,0.459-1.327,1.01
				c0,0.612,0.475,0.888,1.507,1.255c1.376,0.49,2.081,1.132,2.081,2.234c0,1.301-1.081,2.219-2.965,2.219
				c-0.868,0-1.671-0.199-2.228-0.505L76.666,99.817z"/>
			<path fill="#244966" d="M88.232,101.195l-0.115-0.934h-0.049c-0.442,0.582-1.294,1.102-2.425,1.102
				c-1.605,0-2.425-1.056-2.425-2.127c0-1.791,1.704-2.77,4.767-2.755v-0.153c0-0.612-0.18-1.714-1.802-1.714
				c-0.737,0-1.507,0.214-2.064,0.551l-0.328-0.888c0.655-0.398,1.605-0.658,2.605-0.658c2.425,0,3.014,1.546,3.014,3.03v2.77
				c0,0.643,0.033,1.27,0.131,1.775H88.232z M88.019,97.415c-1.573-0.031-3.358,0.23-3.358,1.668c0,0.872,0.623,1.286,1.36,1.286
				c1.032,0,1.687-0.612,1.917-1.24c0.049-0.138,0.082-0.291,0.082-0.428V97.415z"/>
			<path fill="#244966" d="M92.164,101.195c0.033-0.505,0.066-1.255,0.066-1.913v-8.953h1.425v4.652h0.033
				c0.508-0.826,1.425-1.362,2.703-1.362c1.966,0,3.358,1.53,3.342,3.78c0,2.648-1.786,3.964-3.555,3.964
				c-1.147,0-2.064-0.413-2.654-1.393h-0.049l-0.066,1.224H92.164z M93.654,98.226c0,0.168,0.033,0.337,0.066,0.49
				c0.278,0.933,1.114,1.576,2.162,1.576c1.507,0,2.408-1.148,2.408-2.846c0-1.484-0.819-2.755-2.359-2.755
				c-0.983,0-1.9,0.627-2.195,1.653c-0.033,0.153-0.082,0.337-0.082,0.551V98.226z"/>
			<path fill="#244966" d="M102.042,90.329h1.442v10.866h-1.442V90.329z"/>
			<path fill="#244966" d="M110.79,101.195l-0.115-0.934h-0.049c-0.442,0.582-1.294,1.102-2.425,1.102
				c-1.605,0-2.425-1.056-2.425-2.127c0-1.791,1.704-2.77,4.767-2.755v-0.153c0-0.612-0.18-1.714-1.802-1.714
				c-0.737,0-1.507,0.214-2.064,0.551l-0.328-0.888c0.655-0.398,1.605-0.658,2.605-0.658c2.425,0,3.014,1.546,3.014,3.03v2.77
				c0,0.643,0.033,1.27,0.131,1.775H110.79z M110.577,97.415c-1.573-0.031-3.358,0.23-3.358,1.668c0,0.872,0.623,1.286,1.36,1.286
				c1.032,0,1.687-0.612,1.917-1.24c0.049-0.138,0.082-0.291,0.082-0.428V97.415z"/>
			<path fill="#244966" d="M114.787,95.793c0-0.765-0.016-1.393-0.066-2.005h1.278l0.082,1.224h0.033
				c0.393-0.704,1.311-1.393,2.621-1.393c1.098,0,2.801,0.612,2.801,3.153v4.423h-1.442v-4.27c0-1.194-0.475-2.188-1.835-2.188
				c-0.95,0-1.687,0.627-1.933,1.377c-0.066,0.168-0.098,0.398-0.098,0.627v4.453h-1.442V95.793z"/>
			<path fill="#244966" d="M130.022,100.919c-0.377,0.184-1.212,0.429-2.277,0.429c-2.392,0-3.948-1.515-3.948-3.78
				c0-2.28,1.671-3.933,4.259-3.933c0.852,0,1.605,0.199,1.999,0.383l-0.328,1.041c-0.344-0.184-0.885-0.352-1.671-0.352
				c-1.818,0-2.801,1.255-2.801,2.801c0,1.714,1.18,2.77,2.752,2.77c0.819,0,1.36-0.199,1.769-0.367L130.022,100.919z"/>
			<path fill="#244966" d="M136.591,101.195l-0.115-0.934h-0.049c-0.442,0.582-1.294,1.102-2.425,1.102
				c-1.605,0-2.425-1.056-2.425-2.127c0-1.791,1.704-2.77,4.767-2.755v-0.153c0-0.612-0.18-1.714-1.802-1.714
				c-0.737,0-1.507,0.214-2.064,0.551l-0.328-0.888c0.655-0.398,1.605-0.658,2.605-0.658c2.425,0,3.014,1.546,3.014,3.03v2.77
				c0,0.643,0.033,1.27,0.131,1.775H136.591z M136.378,97.415c-1.573-0.031-3.358,0.23-3.358,1.668c0,0.872,0.623,1.286,1.36,1.286
				c1.032,0,1.687-0.612,1.917-1.24c0.049-0.138,0.082-0.291,0.082-0.428V97.415z"/>
		</g>
		<g>
			<path fill="#244966" d="M7.335,80.187l-0.526,1.496c-1.11,0.231-2.022,0.489-2.738,0.775c-0.825,0.328-1.577,0.757-2.256,1.286
				l-0.339-0.155c0.095-0.28,0.223-0.538,0.383-0.775c0.139-0.207,0.299-0.392,0.482-0.556l-1.27-0.602
				c-0.372-0.207-0.558-0.432-0.558-0.675c0-0.195,0.146-0.547,0.438-1.058c0.35-0.608,0.752-1.116,1.205-1.523
				c0.584-0.523,1.172-0.784,1.763-0.784c0.548,0,1,0.131,1.358,0.392c0.08,0.055,0.266,0.222,0.558,0.502l-0.569,1.195
				c-0.27-0.152-0.431-0.243-0.482-0.274c-0.445-0.237-0.81-0.356-1.095-0.356c-0.35,0-0.716,0.082-1.095,0.246
				c-0.38,0.164-0.569,0.35-0.569,0.556c0,0.249,0.219,0.489,0.657,0.72c0.343,0.176,0.861,0.368,1.555,0.575
				C5.251,80.765,6.284,80.437,7.335,80.187z"/>
			<path fill="#244966" d="M14.26,82.412h-1.533c-0.497,0-0.894-0.167-1.194-0.502c-0.263-0.292-0.462-0.726-0.597-1.304
				c-0.135-0.577-0.239-1.289-0.312-2.134c-0.044-0.687-0.089-1.392-0.137-2.116c-0.048-0.723-0.109-1.272-0.186-1.646
				c-0.077-0.374-0.181-0.679-0.312-0.916c-0.161-0.292-0.383-0.547-0.668-0.766l1.347-1.769c0.285,0.73,0.485,1.602,0.602,2.617
				c0.073,0.632,0.146,2.128,0.219,4.487c0.131,1.082,0.321,1.775,0.569,2.079c0.204,0.255,0.427,0.383,0.668,0.383h1.533V82.412z"
				/>
			<path fill="#244966" d="M33.237,82.412H20.075c-0.394,0-0.77-0.055-1.128-0.164c-0.27-0.085-0.588-0.222-0.953-0.41
				c-0.307,0.219-0.613,0.369-0.92,0.451c-0.307,0.082-0.796,0.123-1.467,0.123h-2.113v-1.587h2.113c0.591,0,1.015-0.042,1.27-0.128
				c0.423-0.14,0.635-0.42,0.635-0.839c0-0.176-0.013-0.354-0.038-0.533c-0.026-0.179-0.064-0.375-0.115-0.588l0.449-0.547
				c0.255,0.827,0.606,1.465,1.051,1.915c0.474,0.48,1.033,0.72,1.675,0.72c0.613,0,1.332-0.115,2.157-0.347
				c0.891-0.249,1.657-0.565,2.3-0.948c1.044-0.62,1.683-0.991,1.916-1.113c0.591-0.316,1.128-0.541,1.61-0.675
				c0.54-0.152,1.131-0.228,1.774-0.228c0.993,0,1.741,0.24,2.245,0.72c0.467,0.444,0.701,1.067,0.701,1.869V82.412z M26.273,74.835
				l-0.832,1.322l-1.774-0.766l0.81-1.331L26.273,74.835z M31.452,80.124c0-0.298-0.223-0.53-0.668-0.698
				c-0.445-0.167-0.964-0.251-1.555-0.251c-0.73,0-1.613,0.204-2.65,0.611c-0.825,0.347-1.646,0.693-2.464,1.04h5.048
				c0.796,0,1.376-0.058,1.741-0.173C31.269,80.537,31.452,80.361,31.452,80.124z"/>
			<path fill="#244966" d="M38.712,82.412H32.47v-1.587h5.442c0-0.717-0.102-1.264-0.307-1.641
				c-0.139-0.261-0.482-0.638-1.029-1.131l0.854-1.486c0.526,0.553,0.854,0.985,0.986,1.295c0.197,0.468,0.296,1.243,0.296,2.325
				V82.412z M36.139,85.057l-0.832,1.322l-1.774-0.766l0.81-1.322L36.139,85.057z M38.657,84.236l-0.854,1.313l-1.774-0.784
				l0.821-1.304L38.657,84.236z"/>
			<path fill="#244966" d="M44.187,82.412h-6.242v-1.587h5.442c0-0.717-0.102-1.264-0.307-1.641
				c-0.139-0.261-0.482-0.638-1.029-1.131l0.854-1.486c0.526,0.553,0.854,0.985,0.986,1.295c0.197,0.468,0.296,1.243,0.296,2.325
				V82.412z M43.07,84.628l-0.854,1.322l-1.774-0.766l0.81-1.331L43.07,84.628z"/>
			<path fill="#244966" d="M48.83,82.412H43.42v-1.587h4.303l-1.303-7.733l-0.569-0.228c0-0.42,0.044-0.813,0.131-1.181
				c0.088-0.368,0.219-0.725,0.394-1.071l0.164,0.1c0,0.353,0.237,0.617,0.712,0.793c0.365,0.122,0.734,0.243,1.106,0.365
				c0,0.304-0.029,0.629-0.088,0.976c-0.059,0.347-0.128,0.605-0.208,0.775l-0.526-0.146l1.292,7.149V82.412z"/>
			<path fill="#244966" d="M53.204,80.087c0,0.486-0.106,0.957-0.318,1.413c-0.11,0.243-0.347,0.629-0.712,1.158l-0.197-0.091
				c0.022-0.176,0.042-0.38,0.06-0.611c0.018-0.231,0.027-0.386,0.027-0.465c0-0.632-0.06-1.515-0.181-2.649
				c-0.12-1.134-0.265-2.318-0.433-3.552c-0.102-0.748-0.215-1.511-0.339-2.289c0.146-0.267,0.312-0.556,0.498-0.866
				c0.186-0.31,0.363-0.602,0.531-0.875c0.117,0.693,0.265,1.641,0.443,2.845c0.179,1.204,0.319,2.289,0.422,3.255
				C53.138,78.564,53.204,79.473,53.204,80.087z"/>
			<path fill="#244966" d="M65.779,82.412c0,0.669-0.343,1.362-1.029,2.079c-0.599,0.632-1.343,1.176-2.234,1.632
				c-0.847,0.438-1.544,0.657-2.091,0.657c-0.504,0-1.048-0.061-1.632-0.182c-0.445-0.091-0.978-0.234-1.599-0.429
				c-0.526-0.164-1.048-0.328-1.566-0.492l0.186-0.365c0.482,0.079,0.984,0.16,1.506,0.242c0.522,0.082,0.995,0.123,1.418,0.123
				c0.934,0,1.909-0.249,2.924-0.748c0.92-0.456,1.704-1.032,2.354-1.728c0.65-0.696,0.975-1.324,0.975-1.883
				c0-0.48-0.168-0.985-0.504-1.514c-0.27-0.425-0.65-0.863-1.139-1.313l0.624-1.432c0.598,0.462,1.04,0.924,1.325,1.386
				c0.321,0.523,0.482,1.107,0.482,1.751V82.412z"/>
			<path fill="#244966" d="M70.153,80.087c0,0.486-0.106,0.957-0.318,1.413c-0.11,0.243-0.347,0.629-0.712,1.158l-0.197-0.091
				c0.022-0.176,0.042-0.38,0.06-0.611c0.018-0.231,0.027-0.386,0.027-0.465c0-0.632-0.06-1.515-0.181-2.649
				c-0.12-1.134-0.265-2.318-0.433-3.552c-0.102-0.748-0.215-1.511-0.339-2.289c0.146-0.267,0.312-0.556,0.498-0.866
				c0.186-0.31,0.363-0.602,0.531-0.875c0.117,0.693,0.265,1.641,0.443,2.845c0.179,1.204,0.319,2.289,0.422,3.255
				C70.088,78.564,70.153,79.473,70.153,80.087z"/>
			<path fill="#244966" d="M79.334,82.412h-4.906c-0.416,0-0.79-0.1-1.122-0.301c-0.332-0.201-0.498-0.438-0.498-0.711
				c0-0.231,0.015-0.441,0.044-0.629c0.029-0.188,0.084-0.395,0.164-0.62h0.252c0.08,0.249,0.226,0.429,0.438,0.538
				c0.175,0.091,0.416,0.137,0.723,0.137h4.238c0-1.088-0.183-1.964-0.548-2.626c-0.453-0.827-1.208-1.377-2.267-1.651l0.164-1.769
				c1.263,0.517,2.157,1.341,2.683,2.471c0.423,0.912,0.635,2.104,0.635,3.575V82.412z"/>
			<path fill="#244966" d="M83.977,82.412h-5.409v-1.587h4.303l-1.303-7.733l-0.569-0.228c0-0.42,0.044-0.813,0.131-1.181
				c0.088-0.368,0.219-0.725,0.394-1.071l0.164,0.1c0,0.353,0.237,0.617,0.712,0.793c0.365,0.122,0.734,0.243,1.106,0.365
				c0,0.304-0.029,0.629-0.088,0.976c-0.059,0.347-0.128,0.605-0.208,0.775l-0.526-0.146l1.292,7.149V82.412z"/>
			<path fill="#244966" d="M88.351,80.087c0,0.486-0.106,0.957-0.318,1.413c-0.11,0.243-0.347,0.629-0.712,1.158l-0.197-0.091
				c0.022-0.176,0.042-0.38,0.06-0.611c0.018-0.231,0.027-0.386,0.027-0.465c0-0.632-0.06-1.515-0.181-2.649
				c-0.12-1.134-0.265-2.318-0.433-3.552c-0.102-0.748-0.215-1.511-0.339-2.289c0.146-0.267,0.312-0.556,0.498-0.866
				c0.186-0.31,0.363-0.602,0.531-0.875c0.117,0.693,0.265,1.641,0.443,2.845c0.179,1.204,0.319,2.289,0.422,3.255
				C88.285,78.564,88.351,79.473,88.351,80.087z"/>
			<path fill="#244966" d="M110.037,82.412h-1.566c-0.526,0-0.989-0.374-1.391-1.122c-0.299-0.559-0.54-1.28-0.723-2.161
				c-0.219,0.341-0.497,0.605-0.832,0.793c-0.336,0.188-0.69,0.283-1.062,0.283c-0.84,0-1.538-0.047-2.097-0.141
				c-0.558-0.094-0.838-0.214-0.838-0.36c0-0.523,0.409-1.102,1.226-1.737c0.818-0.635,1.84-1.19,3.066-1.664
				c-0.015-0.049-0.046-0.176-0.093-0.383c-0.048-0.207-0.071-0.334-0.071-0.383c0-0.207,0.084-0.438,0.252-0.693
				c0.139-0.207,0.321-0.42,0.548-0.638c0.073,0.377,0.148,0.742,0.224,1.094c0.077,0.353,0.166,0.717,0.268,1.094l0.328,1.568
				c0.182,0.863,0.347,1.502,0.493,1.915c0.226,0.632,0.46,0.948,0.701,0.948h1.566V82.412z M104.748,72.336l-0.832,1.322
				l-1.774-0.766l0.81-1.322L104.748,72.336z M106.215,78.336l-0.208-0.994c-0.635,0.189-1.135,0.385-1.5,0.588
				c-0.365,0.204-0.672,0.473-0.92,0.807c0.153,0.055,0.332,0.097,0.537,0.128c0.204,0.031,0.485,0.046,0.843,0.046
				C105.405,78.911,105.821,78.719,106.215,78.336z M107.266,71.515l-0.854,1.313l-1.774-0.784l0.821-1.304L107.266,71.515z"/>
			<path fill="#244966" d="M115.512,82.412h-6.242v-1.587h5.442c0-0.717-0.102-1.264-0.307-1.641
				c-0.139-0.261-0.482-0.638-1.029-1.131l0.854-1.486c0.526,0.553,0.854,0.985,0.986,1.295c0.197,0.468,0.296,1.243,0.296,2.325
				V82.412z M114.636,73.977l-0.832,1.322l-1.774-0.766l0.81-1.322L114.636,73.977z"/>
			<path fill="#244966" d="M120.987,82.412h-6.242v-1.587h5.442c0-0.717-0.102-1.264-0.307-1.641
				c-0.139-0.261-0.482-0.638-1.029-1.131l0.854-1.486c0.526,0.553,0.854,0.985,0.986,1.295c0.197,0.468,0.296,1.243,0.296,2.325
				V82.412z M118.413,85.057l-0.832,1.322l-1.774-0.766l0.81-1.322L118.413,85.057z M120.932,84.236l-0.854,1.313l-1.774-0.784
				l0.821-1.304L120.932,84.236z"/>
			<path fill="#244966" d="M129.226,82.412h-4.906c-0.416,0-0.79-0.1-1.122-0.301c-0.332-0.201-0.498-0.438-0.498-0.711
				c0-0.231,0.015-0.441,0.044-0.629c0.029-0.188,0.084-0.395,0.164-0.62h0.252c0.08,0.249,0.226,0.429,0.438,0.538
				c0.175,0.091,0.416,0.137,0.723,0.137h4.238c0-1.088-0.183-1.964-0.548-2.626c-0.453-0.827-1.208-1.377-2.267-1.651l0.164-1.769
				c1.263,0.517,2.157,1.341,2.683,2.471c0.423,0.912,0.635,2.104,0.635,3.575V82.412z"/>
			<path fill="#244966" d="M138.063,82.412h-1.139c-0.489,0-1.04-0.091-1.653-0.274c-0.708-0.213-1.332-0.505-1.872-0.875
				c-0.423,0.432-0.856,0.731-1.298,0.898c-0.442,0.167-1.086,0.251-1.933,0.251h-1.708v-1.587h1.675
				c0.664,0,1.255-0.14,1.774-0.419c0.401-0.219,0.767-0.526,1.095-0.921c0.445-0.535,0.993-1,1.643-1.395
				c0.584-0.353,1.12-0.578,1.61-0.675c0.504,0.638,0.905,1.213,1.204,1.723c0.401,0.693,0.602,1.255,0.602,1.687V82.412z
				 M136.804,80.616c-0.095-0.353-0.241-0.699-0.438-1.04c-0.168-0.286-0.391-0.581-0.668-0.885c-0.35,0.073-0.646,0.21-0.887,0.41
				c-0.161,0.128-0.35,0.343-0.569,0.647c0.263,0.237,0.633,0.45,1.111,0.638c0.478,0.189,0.929,0.304,1.352,0.347L136.804,80.616z"
				/>
		</g>
		<g>
			<rect x="0.552" y="88.05" fill="#A7A9AC" width="137.646" height="0.671"/>
		</g>
	</g>
</g>
</svg>
