<svg width="230" height="517" viewBox="0 0 230 517" fill="none" xmlns="http://www.w3.org/2000/svg">
<path d="M0.499047 -52.0068H140.776C214.061 -52.0068 273.472 7.40215 273.472 80.6882V220.965H133.194C59.9081 220.965 0.499047 161.555 0.499047 88.2702V-52.0068ZM0.498047 516.298V376.018C0.498047 302.734 59.9071 243.325 133.193 243.325H273.47V383.602C273.47 456.886 214.061 516.298 140.775 516.298H0.498047ZM436.107 243.325H295.83V383.602C295.83 456.886 355.239 516.295 428.523 516.295H568.803V376.018C568.803 302.734 509.392 243.325 436.107 243.325Z" fill="url(#paint0_linear_1_640)"/>
<defs>
<linearGradient id="paint0_linear_1_640" x1="0.498053" y1="512.307" x2="568.803" y2="-48.0159" gradientUnits="userSpaceOnUse">
<stop stop-color="#9DC48B"/>
<stop offset="1" stop-color="#9DC48B" stop-opacity="0"/>
</linearGradient>
</defs>
</svg>
